<?xml version="1.0" encoding="UTF-8" standalone="no"?>
<!DOCTYPE svg PUBLIC "-//W3C//DTD SVG 1.1//EN"
 "http://www.w3.org/Graphics/SVG/1.1/DTD/svg11.dtd">
<!-- Generated by graphviz version 2.43.0 (0)
 -->
<!-- Title: G Pages: 1 -->
<svg width="160pt" height="354pt"
 viewBox="0.00 0.00 160.00 354.00" xmlns="http://www.w3.org/2000/svg" xmlns:xlink="http://www.w3.org/1999/xlink">
<g id="graph0" class="graph" transform="scale(1 1) rotate(0) translate(4 350)">
<title>G</title>
<polygon fill="white" stroke="transparent" points="-4,4 -4,-350 156,-350 156,4 -4,4"/>
<g id="clust1" class="cluster">
<title>cluster_root</title>
<g id="a_clust1"><a xlink:title="eventq_index=0&#10;full_system=false&#10;sim_quantum=0&#10;time_sync_enable=false&#10;time_sync_period=100000000000&#10;time_sync_spin_threshold=100000000">
<path fill="#bab6ae" stroke="#000000" d="M20,-8C20,-8 132,-8 132,-8 138,-8 144,-14 144,-20 144,-20 144,-326 144,-326 144,-332 138,-338 132,-338 132,-338 20,-338 20,-338 14,-338 8,-332 8,-326 8,-326 8,-20 8,-20 8,-14 14,-8 20,-8"/>
<text text-anchor="middle" x="76" y="-322.8" font-family="Arial" font-size="14.00" fill="#000000">root </text>
<text text-anchor="middle" x="76" y="-307.8" font-family="Arial" font-size="14.00" fill="#000000">: Root</text>
</a>
</g>
</g>
<g id="clust2" class="cluster">
<title>cluster_system</title>
<g id="a_clust2"><a xlink:title="auto_unlink_shared_backstore=false&#10;cache_line_size=64&#10;eventq_index=0&#10;exit_on_work_items=false&#10;init_param=0&#10;m5ops_base=0&#10;mem_mode=timing&#10;mem_ranges=0:8589934592&#10;memories=system.mem_ctrl.dram&#10;mmap_using_noreserve=false&#10;multi_thread=false&#10;&#10;um_work_ids=16&#10;&#13;eadfile=&#10;&#13;edirect_paths=&#10;shadow_rom_ranges=&#10;shared_backstore=&#10;symbolfile=&#10;thermal_components=&#10;thermal_model=Null&#10;work_begin_ckpt_count=0&#10;work_begin_cpu_id_exit=&#45;1&#10;work_begin_exit_count=0&#10;work_cpus_ckpt_count=0&#10;work_end_ckpt_count=0&#10;work_end_exit_count=0&#10;work_item_id=&#45;1&#10;workload=system.workload">
<path fill="#e4e7eb" stroke="#000000" d="M28,-16C28,-16 124,-16 124,-16 130,-16 136,-22 136,-28 136,-28 136,-280 136,-280 136,-286 130,-292 124,-292 124,-292 28,-292 28,-292 22,-292 16,-286 16,-280 16,-280 16,-28 16,-28 16,-22 22,-16 28,-16"/>
<text text-anchor="middle" x="76" y="-276.8" font-family="Arial" font-size="14.00" fill="#000000">system </text>
<text text-anchor="middle" x="76" y="-261.8" font-family="Arial" font-size="14.00" fill="#000000">: System</text>
</a>
</g>
</g>
<g id="clust7" class="cluster">
<title>cluster_system_generator</title>
<g id="a_clust7"><a xlink:title="clk_domain=system.clk_domain&#10;cpu_id=&#45;1&#10;elastic_req=false&#10;eventq_index=0&#10;max_outstanding_reqs=0&#10;&#10;umThreads=1&#10;power_model=&#10;power_state=system.generator.power_state&#10;progress_check=1000000000&#10;sids=&#10;socket_id=0&#10;ssids=&#10;stream_gen=none&#10;system=system">
<path fill="#bab6ae" stroke="#000000" d="M36,-24C36,-24 116,-24 116,-24 122,-24 128,-30 128,-36 128,-36 128,-103 128,-103 128,-109 122,-115 116,-115 116,-115 36,-115 36,-115 30,-115 24,-109 24,-103 24,-103 24,-36 24,-36 24,-30 30,-24 36,-24"/>
<text text-anchor="middle" x="76" y="-99.8" font-family="Arial" font-size="14.00" fill="#000000">generator </text>
<text text-anchor="middle" x="76" y="-84.8" font-family="Arial" font-size="14.00" fill="#000000">: PyTrafficGen</text>
</a>
</g>
</g>
<g id="clust9" class="cluster">
<title>cluster_system_mem_ctrl</title>
<g id="a_clust9"><a xlink:title="clk_domain=system.clk_domain&#10;command_window=10000&#10;dram=system.mem_ctrl.dram&#10;eventq_index=0&#10;mem_sched_policy=frfcfs&#10;min_reads_per_switch=16&#10;min_writes_per_switch=16&#10;power_model=&#10;power_state=system.mem_ctrl.power_state&#10;qos_policy=Null&#10;qos_priorities=1&#10;qos_priority_escalation=false&#10;qos_q_policy=fifo&#10;qos_requestors= &#160;&#160;&#160;&#160;&#160;&#160;&#160;&#160;&#160;&#160;&#160;&#160;&#160;&#160;&#10;qos_syncro_scheduler=false&#10;qos_turnaround_policy=Null&#10;static_backend_latency=10000&#10;static_frontend_latency=10000&#10;system=system&#10;write_high_thresh_perc=85&#10;write_low_thresh_perc=50">
<path fill="#bab6ae" stroke="#000000" d="M49,-155C49,-155 102,-155 102,-155 108,-155 114,-161 114,-167 114,-167 114,-234 114,-234 114,-240 108,-246 102,-246 102,-246 49,-246 49,-246 43,-246 37,-240 37,-234 37,-234 37,-167 37,-167 37,-161 43,-155 49,-155"/>
<text text-anchor="middle" x="75.5" y="-230.8" font-family="Arial" font-size="14.00" fill="#000000">mem_ctrl </text>
<text text-anchor="middle" x="75.5" y="-215.8" font-family="Arial" font-size="14.00" fill="#000000">: MemCtrl</text>
</a>
</g>
</g>
<!-- system_generator_port -->
<g id="node1" class="node">
<title>system_generator_port</title>
<path fill="#94918b" stroke="#000000" d="M60,-32.5C60,-32.5 90,-32.5 90,-32.5 96,-32.5 102,-38.5 102,-44.5 102,-44.5 102,-56.5 102,-56.5 102,-62.5 96,-68.5 90,-68.5 90,-68.5 60,-68.5 60,-68.5 54,-68.5 48,-62.5 48,-56.5 48,-56.5 48,-44.5 48,-44.5 48,-38.5 54,-32.5 60,-32.5"/>
<text text-anchor="middle" x="75" y="-46.8" font-family="Arial" font-size="14.00" fill="#000000">port</text>
</g>
<!-- system_mem_ctrl_port -->
<g id="node2" class="node">
<title>system_mem_ctrl_port</title>
<path fill="#94918b" stroke="#000000" d="M60,-163.5C60,-163.5 90,-163.5 90,-163.5 96,-163.5 102,-169.5 102,-175.5 102,-175.5 102,-187.5 102,-187.5 102,-193.5 96,-199.5 90,-199.5 90,-199.5 60,-199.5 60,-199.5 54,-199.5 48,-193.5 48,-187.5 48,-187.5 48,-175.5 48,-175.5 48,-169.5 54,-163.5 60,-163.5"/>
<text text-anchor="middle" x="75" y="-177.8" font-family="Arial" font-size="14.00" fill="#000000">port</text>
</g>
<!-- system_mem_ctrl_port&#45;&gt;system_generator_port -->
<g id="edge1" class="edge">
<title>system_mem_ctrl_port&#45;&gt;system_generator_port</title>
<path fill="none" stroke="black" d="M75,-153.23C75,-127.7 75,-90.32 75,-68.7"/>
<polygon fill="black" stroke="black" points="71.5,-153.37 75,-163.37 78.5,-153.37 71.5,-153.37"/>
</g>
</g>
</svg>
