<?xml version="1.0" standalone="no"?>
<!DOCTYPE svg PUBLIC "-//W3C//DTD SVG 20010904//EN"
 "http://www.w3.org/TR/2001/REC-SVG-20010904/DTD/svg10.dtd">
<svg version="1.0" xmlns="http://www.w3.org/2000/svg"
 width="500.000000pt" height="500.000000pt" viewBox="0 0 500.000000 500.000000"
 preserveAspectRatio="xMidYMid meet">
<metadata>
Created by potrace 1.11, written by Peter Selinger 2001-2013
</metadata>
<g transform="translate(0.000000,500.000000) scale(0.100000,-0.100000)"
fill="#000000" stroke="none">
<path d="M2507 4993 c-3 -5 -5 -416 -5 -915 l0 -906 173 174 174 174 667 0
c367 0 665 -2 663 -5 -2 -2 -460 -461 -1018 -1020 l-1015 -1015 -663 0 c-365
0 -663 2 -663 5 0 2 376 380 835 839 459 460 835 840 835 845 0 20 -170 153
-273 213 -205 119 -405 176 -655 185 -165 6 -243 -2 -402 -42 -474 -120 -849
-488 -989 -971 -76 -260 -63 -606 32 -854 99 -260 265 -482 479 -641 354 -262
810 -341 1235 -213 45 13 103 33 128 44 l45 19 0 -249 0 -250 -758 0 -757 0
-205 -205 -205 -205 1167 0 1166 0 0 913 c1 955 0 935 41 888 62 -68 250 -195
368 -247 83 -37 215 -80 313 -101 120 -26 419 -25 540 1 275 59 505 182 696
371 135 134 199 220 284 385 104 201 164 532 135 745 -3 28 -8 66 -11 85 -14
106 -61 260 -115 375 -225 482 -716 797 -1244 798 -200 0 -336 -23 -503 -86
l-92 -34 0 248 0 249 758 0 757 0 205 205 205 205 -1162 0 c-639 0 -1164 -3
-1166 -7z"/>
</g>
</svg>
